<?xml version="1.0" encoding="UTF-8" standalone="no"?> <svg xmlns="http://www.w3.org/2000/svg" viewBox="0 0 64 64" fill="#ECECEC"><title>1</title><g id="Layer_41" data-name="Layer 41"><path d="M52.47,38.36,31.82,34.58A4.08,4.08,0,0,1,28.5,30L31.9,4.26a2,2,0,0,0-2-2.26H4A2,2,0,0,0,2,4.1L4,42.93,2,59.77A2,2,0,0,0,4,62H19.07a2,2,0,0,0,2-2V56.38h4.19V60a2,2,0,0,0,2,2H60a2,2,0,0,0,2-2V50.83C62,44,58.26,39.07,52.47,38.36ZM27.64,6l-3.1,23.5a8.08,8.08,0,0,0,6.56,9L51.81,42.3l.13,0c3.79.44,6.06,3.62,6.06,8.51v1.55H6.91L8,43.23a2,2,0,0,0,0-.34L6.1,6ZM17.07,58H6.25l.19-1.62H17.07Zm12.19,0V56.38H58V58Z"/></g></svg>