<?xml version="1.0" encoding="UTF-8" standalone="no"?> <svg height="512pt" viewBox="-61 0 512 512" width="512pt" xmlns="http://www.w3.org/2000/svg" fill="#ECECEC"><path d="m195 512c107.523438 0 195-87.476562 195-195 0-78.757812-47.796875-149.714844-120-179.828125v-107.171875h30v-30h-210v30h30v107.171875c-72.203125 30.113281-120 101.070313-120 179.828125 0 107.523438 87.476562 195 195 195zm-45-482h90v30h-90zm-9.992188 131.601562 9.992188-3.539062v-68.0625h90v68.0625l9.992188 3.539062c65.800781 23.296876 110.007812 85.746094 110.007812 155.398438 0 90.980469-74.019531 165-165 165s-165-74.019531-165-165c0-69.652344 44.207031-132.101562 110.007812-155.398438zm0 0"/><path d="m180 479.886719 115.492188-207.886719h-85.492188v-117.886719l-115.492188 207.886719h85.492188zm-34.507812-147.886719 34.507812-62.113281v32.113281h64.507812l-34.507812 62.113281v-32.113281zm0 0"/></svg>