<svg width="177" height="180" viewBox="0 0 177 180" fill="none" xmlns="http://www.w3.org/2000/svg">
<path d="M16 169C16.6919 167.408 18.2928 165.896 18.7476 164.378C18.8925 163.894 20.322 161.857 20.8462 161.571C21.9221 160.985 23.0896 158.256 23.7885 157.197C24.7858 155.686 24.8252 153.857 25.6491 152.286C27.1669 149.39 27.5258 145.103 28.44 142.051C29.2922 139.206 29.2405 135.972 29.2405 132.971C29.2405 131.266 29.4265 129.855 29.9328 128.225C30.4608 126.526 30.1693 124.563 30.8847 122.943C32.2967 119.744 31.9664 115.423 31.9664 111.986C31.9664 104.99 31.9664 97.9952 31.9664 91" stroke="#ECECEC" stroke-width="2" stroke-linecap="round"/>
<path d="M50.58 168C46.9314 161.957 50.4044 153.217 52.9445 147.368C53.8193 145.354 54 143.092 54 140.921C54 138.84 54 136.759 54 134.678C54 131.971 53.24 129.377 53.24 126.716C53.24 120.028 50.58 113.321 50.58 106.515C50.58 101.466 50.2001 96.1668 50.2001 91" stroke="#ECECEC" stroke-width="2" stroke-linecap="round"/>
<path d="M34.6573 89.4677C32.5773 89.5168 28.5494 90.7543 26.6737 89.2788C25.1379 88.0707 25.0925 87.8523 24.6277 85.8781C24.1558 83.8735 22.851 84.1778 20.9584 84.1778C18.6552 84.1778 16.2564 82.9778 14.6427 81.3649C12.9441 79.6672 12.3638 77.0152 12.6634 74.7524C12.8083 73.6582 13.7281 73.4484 12.8636 72.6323C12.447 72.239 11.719 71.6231 11.4403 71.1628C11.2232 70.8042 9.88217 70.2378 9.43886 69.8194C8.60109 69.0286 8.07605 68.5279 7.12606 67.9301C4.90139 66.5301 3.37351 64.9815 1.74436 63.102C-0.261675 60.7876 2.25001 57.1419 3.83477 55.272C4.46653 54.5266 7.24799 54.3766 8.23799 54.3274C9.33347 54.273 10.4474 54.5297 11.4403 54.0335C12.1018 53.7029 12.3827 53.0775 13.0415 52.732C13.6421 52.417 14.3067 51.6495 14.6427 51.0946C14.9585 50.5728 14.8334 49.3468 15.2431 49.0374C16.2436 48.2819 17.4447 46.1892 17.4447 44.881C17.4447 43.0971 17.0274 41.1248 18.2675 39.759C19.4243 38.4851 22.8511 36.9461 24.6722 36.9461C26.9839 36.9461 28.0186 38.0022 29.8538 38.9194C32.3845 40.1841 37.1732 41.3215 39.8611 40.0529C41.6446 39.2111 42.4608 37.4105 43.6639 36.0225C44.1073 35.5108 44.8882 34.5675 45.0871 35.2248C45.4034 36.2698 49.7724 36.2575 50.4466 36.3793C52.2266 36.7011 54.0845 37.0198 55.5614 37.9957C55.7115 38.0949 58.9203 37.7018 59.2085 37.7018C63.1145 37.7018 64.2789 38.1907 64.2789 41.7742C64.2789 44.1463 63.6189 45.6865 62.8779 47.9249C61.9792 50.6393 65.1614 52.0779 66.436 53.9495C67.9833 56.2214 70.34 58.3709 72.9074 59.6173C74.8399 60.5554 73.7769 64.6307 72.9964 65.9569C71.0508 69.2625 69.573 72.4628 67.0809 75.4872C66.2139 76.5394 65.2867 78.554 65.0795 79.8745C64.9371 80.7818 64.8238 83.2436 64.0565 83.9679C61.4597 86.4191 59.3589 88.4549 55.1611 87.6624C52.7665 87.2104 53.1935 86.9613 51.7809 88.6281C50.3282 90.3421 47.6722 89.1478 45.4652 89.0899C44.6392 89.0682 42.2217 89.8901 41.5512 89.3838C40.9711 88.9457 40.2153 89.0899 39.4608 89.0899" stroke="#ECECEC" stroke-width="2" stroke-linecap="round"/>
<path d="M30.834 52C30.0897 52.9595 29.3113 53.5517 30.194 54.6C30.3101 54.7379 31.0087 55.6 30.9999 55.6C28.7008 55.6 26.4017 55.6 24.1026 55.6C21.9345 55.6 14.1738 55.6103 15.072 59.4C15.2411 60.1134 16.462 61.3891 17.1815 61.6889C18.2136 62.1189 18.261 60.3844 17.4185 61.4C15.8651 63.2725 17.9465 64.7172 19.3147 66" stroke="#ECECEC" stroke-width="2" stroke-linecap="round"/>
<path d="M51.6676 61C53.7548 61.7688 57.0207 64.4088 53.3186 65.5833C51.6349 66.1175 49.4036 65.7667 47.6548 65.7667C46.5546 65.7667 45.7855 66.0916 47.2192 66.5815C48.4464 67.0008 50.2661 70.0651 49.3746 71.0833C48.0558 72.5897 44.6224 71.0391 43 72" stroke="#ECECEC" stroke-width="2" stroke-linecap="round"/>
<path d="M45.8494 42C47.3351 42.6523 49.7853 44.4709 48.7538 46.4731C48.3897 47.1799 44.6905 49.6736 44.8339 50.129C44.9982 50.6508 46.8297 52.3439 46.0119 52.8387C44.373 53.8303 41.8313 53.6768 40 54" stroke="#ECECEC" stroke-width="2" stroke-linecap="round"/>
<path d="M33 48.423C34.8775 48.1433 40 47.0696 40 50" stroke="#ECECEC" stroke-width="2" stroke-linecap="round"/>
<path d="M30 70C26.4612 71.3111 21.3944 72.4199 23.4925 76.2609C23.9094 77.024 24.428 79 25.725 79C26.8815 79 28.3008 77.836 29.145 78.6087" stroke="#ECECEC" stroke-width="2" stroke-linecap="round"/>
<path d="M53 77.8079C56.2031 78.2961 59.4149 78.0201 61 75" stroke="#ECECEC" stroke-width="2" stroke-linecap="round"/>
<path d="M50 102C51.9162 101.854 53.0997 101.514 54.4118 100.5C54.9171 100.11 55.3827 99.2385 56 99" stroke="#ECECEC" stroke-width="2" stroke-linecap="round"/>
<path d="M56 99C56.1999 99.6966 56.2956 100.643 56.8041 101.266C57.0738 101.596 56.8019 102.004 57.0339 102.351C57.4748 103.01 58.5879 103.556 57.6083 104" stroke="#ECECEC" stroke-width="2" stroke-linecap="round"/>
<path d="M57 104C55.9988 105.059 54.5029 105.747 53.2315 106.364C52.7238 106.61 52.1186 106.918 51.9907 107.545C51.8027 108.468 51.3593 109.216 51 110" stroke="#ECECEC" stroke-width="2" stroke-linecap="round"/>
<path d="M8.87564 171.592C11.879 171.006 14.921 170.303 17.8971 170.303C20.8506 170.303 23.8041 170.303 26.7575 170.303C28.265 170.303 29.6534 170.101 31.143 169.909C36.9288 169.163 42.9298 169.659 48.7564 169.659C50.8206 169.659 52.474 168.508 54.4664 168.066C59.7362 166.894 64.8504 166.128 70.4152 166.437C75.6479 166.727 80.8104 168.37 86.2028 168.37C90.3913 168.37 94.5799 168.37 98.7684 168.37C103.876 168.37 109.172 168.048 114.377 168.048C120.756 168.048 126.99 169.014 133.405 169.014C137.699 169.014 141.894 168.37 146.131 168.37C148.586 168.37 151.095 167.725 153.47 167.725C155.763 167.725 158.06 167.081 160.469 167.081C162.318 167.081 165.727 166.949 167.396 166.114" stroke="#ECECEC" stroke-width="2" stroke-linecap="round"/>
<path d="M74.3373 165.793C74.5828 165.186 75.0373 163.45 75.627 162.979C76.1099 162.592 76.7833 162.109 77.099 161.572C77.3207 161.195 78.1014 160.882 78.4538 160.53C78.8398 160.144 79.321 159.825 79.7305 159.461C80.7213 158.581 82.1834 158.109 83.1957 157.299C84.2793 156.432 85.572 157.187 86.7781 157.338C92.2369 158.02 95.441 163.37 95.441 168.606" stroke="#ECECEC" stroke-width="2" stroke-linecap="round"/>
<path d="M153.92 153.304C151.305 153.414 150.45 153.833 150.31 156.037C150.248 157.008 149.645 157.828 150.31 158.905C151.085 160.16 154.238 161.693 155.634 160.66C156.41 160.085 157.253 160.485 157.786 159.377C158.082 158.759 158.042 156.86 157.84 156.206C157.26 154.325 155.357 153 153.264 153" stroke="#ECECEC" stroke-width="2" stroke-linecap="round"/>
<path d="M108.338 160.399C110.533 159.543 112.795 159.031 115.021 158.536C116.246 158.264 117.714 157.42 118.89 157.351C120.317 157.267 121.627 156.495 122.993 156.192C124.016 155.964 124.906 155.063 125.924 155.006C126.521 154.973 128.11 154.469 128.621 154.185C129.209 153.859 130.678 153.402 131.317 153.365C132.277 153.308 133.425 152.655 134.235 152.192C135.05 151.727 136.091 151.457 137.062 151.241C137.835 151.07 139.323 150.759 139.941 150.264C140.433 149.871 142.018 149.788 142.677 149.6C143.299 149.422 144.211 148.678 144.735 148.258C144.897 148.128 145.767 148.047 145.986 147.985C146.421 147.86 146.948 147.742 147.367 147.503C149.048 146.542 150.933 145.901 152.76 145.379C153.147 145.269 153.658 145.155 154.063 144.975C154.4 144.825 155.169 144.835 155.417 144.637C155.871 144.273 157.675 143.751 158.283 143.751" stroke="#ECECEC" stroke-width="2" stroke-linecap="round"/>
<path d="M157.814 143.751C157.255 141.363 155.938 139.312 155.938 136.951C155.938 135.649 156.411 133.087 155.704 132.027" stroke="#ECECEC" stroke-width="2" stroke-linecap="round"/>
<path d="M155.469 132.496C154.011 130.01 153.618 127.475 152.304 125.109C151.611 123.863 151.393 120.769 149.49 121.826C148.773 122.225 147.863 122.131 147.145 122.53C146.517 122.879 145.153 123.272 144.449 123.351C143.587 123.446 142.873 124.289 141.986 124.289C141.191 124.289 140.415 124.94 139.524 124.992C138.869 125.031 137.81 125.597 137.18 125.878C136.422 126.214 135.696 126.337 134.952 126.751C133.282 127.679 131.107 128.251 129.337 128.757C128.949 128.868 127.576 129.493 127.331 129.799C126.688 130.603 123.966 130.921 123.11 131.141C122.008 131.423 120.552 132.027 119.476 132.027C118.867 132.027 117.575 132.215 117.014 132.496" stroke="#ECECEC" stroke-width="2" stroke-linecap="round"/>
<path d="M115.841 132.496C114.863 131.205 113.404 130.298 112.506 128.978C111.94 128.145 111.49 127.12 110.995 126.23C110.084 124.589 108.941 123.147 107.869 121.657C106.92 120.339 105.615 119.361 104.586 118.075C103.541 116.769 102.364 115.741 101.121 114.622C100.647 114.196 100.552 113.464 100.014 113.033C99.4558 112.587 98.8344 111.618 98.3851 111.04C97.7013 110.161 96.7583 108.881 95.7928 108.109C95.1956 107.631 95.1037 106.748 94.0341 107.223C93.1691 107.608 92.1133 107.482 91.2203 107.822C90.6666 108.033 89.9435 107.962 89.3574 108.122C88.308 108.408 87.3029 108.84 86.27 109.177C85.1661 109.538 83.9279 109.61 82.7788 109.737C81.6426 109.864 80.621 110.169 79.496 110.454C77.9076 110.857 76.3206 110.977 74.7151 111.275C73.2977 111.537 71.752 111.696 70.351 111.861C69.7817 111.928 68.6663 112.13 68.1886 112.512C67.7437 112.868 66.3535 113.127 65.7786 113.255C65.1064 113.404 63.9752 113.502 63.3165 113.502C61.6208 113.502 62.144 116.416 62.144 117.606C62.144 120.101 61.6751 122.485 61.6751 124.992C61.6751 126.593 63.0503 128.488 63.7724 129.812C64.5681 131.271 65.5581 132.621 66.3648 134.033C66.7706 134.743 67.1681 135.495 67.4851 136.247C67.6612 136.666 67.5126 137.588 67.8889 137.889C68.2288 138.161 68.4503 138.874 68.4752 139.296C68.5149 139.971 69.2343 141.012 69.4001 141.758C69.5856 142.593 69.6623 143.509 69.8951 144.324C70.3652 145.97 70.1166 148.05 70.1166 149.847" stroke="#ECECEC" stroke-width="2" stroke-linecap="round"/>
<path d="M124.048 130.385C123.514 129.47 122.233 127.952 122.172 126.868C122.16 126.638 122.272 126.171 122.12 125.982C121.765 125.538 121.755 125.05 121.521 124.523C121.012 123.378 121.234 122.468 121.234 121.357C121.234 120.496 121.87 119.133 122.459 118.478C123.126 117.737 123.11 115.574 123.11 114.557C123.11 112.242 121.077 109.754 122.12 107.406C122.278 107.051 122.363 106.115 122.407 105.764C122.478 105.197 122.965 104.603 123.097 104.005C123.345 102.891 124.285 102.476 124.752 101.543" stroke="#ECECEC" stroke-width="2" stroke-linecap="round"/>
<path d="M124.752 101.778C125.262 102.44 125.796 103.082 126.445 103.602C126.461 103.614 127.08 103.888 126.953 103.888C126.398 103.888 126.141 104.673 125.872 105.009C125.48 105.498 124.532 107.659 125.038 108.291C125.631 109.032 125.481 110.428 126.107 111.209C126.438 111.624 126.37 112.243 126.628 112.694C126.911 113.19 127.174 113.832 127.318 114.336C127.506 114.993 127.324 115.846 128.035 116.264C128.419 116.49 129.171 116.564 129.441 116.902C130.111 117.739 130.807 118.458 131.096 119.469C131.384 120.476 132.109 121.634 132.607 122.53C133.193 123.584 133.428 125.222 133.428 126.399" stroke="#ECECEC" stroke-width="2" stroke-linecap="round"/>
<path d="M83.2478 115.144C84.4768 116.833 84.0757 119.933 85.7099 121.24C87.0878 122.343 87.6446 125.505 88.3544 127.102C88.6669 127.806 89.2574 128.986 89.3444 129.682C89.4419 130.462 90.3432 131.069 90.5299 131.909C90.751 132.904 91.4143 133.775 91.4548 134.788C91.5004 135.929 91.7441 136.58 92.2755 137.537C93.0949 139.012 94.0345 137.917 94.9851 138.709C95.4708 139.114 97.5791 139.455 98.2549 139.53C99.9933 139.723 102.367 140.991 103.7 142.057C104.365 142.589 105.449 142.84 106.227 143.23C107.355 143.794 108.53 144.413 109.771 144.689C110.452 144.84 111.081 145.627 111.738 145.627C112.871 145.627 114.005 145.627 115.138 145.627C116.019 145.627 115.982 143.623 115.828 142.93C115.407 141.034 114.903 138.84 114.903 136.951C114.903 136.151 113.57 135.587 113.027 135.075C112.234 134.326 111.366 133.701 110.683 132.847C109.3 131.118 108.008 129.274 106.983 127.337C106.004 125.488 104.252 124.057 103.361 122.178C102.519 120.399 100.898 118.862 100.131 117.137C99.6796 116.122 98.645 115.179 98.0725 114.206C97.7074 113.585 96.855 112.207 96.2487 111.861C95.5457 111.459 94.3595 110.516 93.5651 111.509C93.3382 111.793 91.8918 111.883 91.4548 112.095C90.5964 112.512 90.0808 112.531 89.162 112.564C88.5239 112.587 85.3345 112.828 84.8892 113.385C84.3406 114.071 82.4617 113.337 83.2478 114.909" stroke="#ECECEC" stroke-width="2" stroke-linecap="round"/>
<path d="M91.9238 136.013C93.9462 134.829 96.4252 135.237 98.4894 134.319C99.5948 133.828 100.669 133.272 101.772 132.782C102.626 132.402 103.739 132.04 104.404 131.375C104.979 130.8 106.7 130.378 106.931 129.916" stroke="#ECECEC" stroke-width="2" stroke-linecap="round"/>
<path d="M104.351 128.978C103.363 126.594 101.66 125.832 99.4533 125.096C97.7231 124.519 96.3606 123.751 94.8548 122.764C94.3687 122.446 93.8954 121.709 93.3307 121.709" stroke="#ECECEC" stroke-width="2" stroke-linecap="round"/>
<path d="M93.0962 117.723C92.3947 119.415 92.0627 121.025 91.6762 122.764C91.4749 123.671 90.9858 124.523 90.9858 125.461" stroke="#ECECEC" stroke-width="2" stroke-linecap="round"/>
<path d="M108.807 168.137C109.617 167.101 112.375 165.558 109.745 165.558C107.845 165.558 108.951 164.759 109.289 163.578C109.773 161.883 107.761 163.288 107.634 162.275C107.475 160.997 107.517 160.377 108.221 159.11C109.016 157.678 107.492 157.541 106.579 157.338C105.267 157.046 105.524 155.655 105.524 154.537C105.524 153.439 104.324 153.719 103.466 154.016C102.653 154.297 102.925 153.376 102.593 152.779C102.166 152.01 102.479 149.751 101.251 150.733C99.6492 152.015 100.225 149.342 99.6097 148.727C98.692 147.809 97.736 149.834 96.7437 148.558C96.1885 147.844 95.5046 146.502 94.451 147.451C94.2502 147.631 93.3425 148.206 93.0962 148.206C92.7649 148.206 92.3717 147.183 92.1582 146.916C91.5401 146.144 90.8408 144.656 89.8134 145.627C89.1182 146.283 87.9987 146.7 87.234 145.744C86.7133 145.093 85.0205 145.304 84.4202 145.679C84.1249 145.863 83.8893 146.565 83.4823 146.565C83.1505 146.565 82.2103 145.967 82.0753 145.731C80.3206 142.66 79.4721 147.583 78.0891 146.851C77.5657 146.574 76.5285 144.619 75.7442 145.992C75.4412 146.522 75.0002 148.636 74.3373 148.675C73.6473 148.716 72.4975 147.066 71.9403 147.685C71.2857 148.412 72.0534 150.082 70.7028 150.082C70.1151 150.082 68.5365 148.483 68.0583 148.962C67.4962 149.524 68.2342 151.541 67.42 152.192C67.2426 152.334 65.4543 151.958 64.8406 151.958C63.1972 151.958 64.173 154.036 64.541 154.772C64.8509 155.391 66.196 157.052 64.8276 156.661C64.0289 156.432 62.8475 155.196 62.8475 156.882C62.8475 157.851 63.9867 159.519 63.7724 160.269C63.6502 160.697 62.9543 160.817 62.7303 161.22C62.4435 161.736 63.0215 162.2 63.082 162.744C63.1878 163.696 63.9427 164.855 62.2613 164.855C60.2019 164.855 62.9712 165.648 63.551 165.793" stroke="#ECECEC" stroke-width="2" stroke-linecap="round"/>
<path d="M84.1857 161.572C83.8084 163.411 84.0059 162.013 84.4202 161.806" stroke="#ECECEC" stroke-width="2" stroke-linecap="round"/>
<path d="M87.4685 161.337C87.6182 162.067 87.9389 162.511 87.234 162.041" stroke="#ECECEC" stroke-width="2" stroke-linecap="round"/>
<path d="M89.1099 163.917C89.128 164.64 89.5819 165.393 89.3314 164.516C89.2574 164.257 88.9727 163.974 88.8754 163.682" stroke="#ECECEC" stroke-width="2" stroke-linecap="round"/>
<path d="M80.1995 164.151C80.1001 164.673 80.2344 165.778 79.9129 165.376C79.7095 165.122 79.7305 164.96 79.7305 164.62" stroke="#ECECEC" stroke-width="2" stroke-linecap="round"/>
<path d="M149.373 147.972C145.896 148.059 143.511 151.194 143.511 154.42C143.511 154.972 143.276 155.636 143.276 156.296C143.276 157.006 143.619 157.312 143.758 157.937C144.014 159.088 145.247 160.155 145.387 161.337C145.507 162.36 146.956 163.552 147.679 164.203C148.562 164.998 149.574 165.543 150.662 166.027C151.918 166.585 153.118 166.73 154.531 166.73C155.81 166.73 156.719 165.841 157.932 165.571C158.669 165.407 160.202 164.532 160.628 163.786C161.021 163.098 162 163.161 162.283 162.171C162.426 161.67 163.173 160.988 163.207 160.399C163.271 159.322 163.443 157.411 162.791 156.595C162.477 156.204 162.702 155.429 162.322 154.954C162.07 154.64 161.566 153.402 161.566 153.013C161.566 150.248 158.536 148.501 156.407 147.555C155.158 146.999 153.47 147.034 152.056 147.034C151.106 147.034 148.431 146.806 147.966 147.737" stroke="#ECECEC" stroke-width="2" stroke-linecap="round"/>
<path d="M130.379 98.2606C132.166 97.6278 133.611 97.6115 135.186 96.7364C136.016 96.2757 135.97 95.5601 136.359 94.8605C136.716 94.2185 135.884 93.355 136.189 93.0498C136.664 92.5753 137.758 93.0144 138.3 92.5808C138.897 92.103 139.453 91.3598 140.098 90.9915C141.148 90.3911 141.174 88.552 141.387 87.5915C141.534 86.9314 141.545 85.4866 141.114 84.947C140.231 83.8435 140.933 84.3747 141.869 83.488C143 82.4165 143.745 80.2142 143.745 78.681C143.745 78.0281 143.373 76.782 142.573 76.6879C141.296 76.5377 141.869 75.8405 141.869 74.8641C141.869 72.8528 140.464 71.2378 139.29 69.7706C138.364 68.6136 136.242 69.1031 136.242 70.5913C136.242 70.8722 136.479 71.1677 136.424 71.1123C136.212 70.9005 135.96 70.7083 135.773 70.474C135.242 69.8111 134.179 70.7407 133.779 71.0602C133.367 71.3905 132.754 72.1614 132.724 72.7016C132.674 73.6102 133.107 74.0771 133.193 74.812C133.316 75.8577 134.038 75.5155 132.607 75.5155C131.887 75.5155 131.286 76.3881 131.096 77.0526C130.601 78.7841 129.822 79.7519 131.265 81.1952C131.761 81.6909 132.634 81.822 131.682 82.0941C131.153 82.2452 130.723 84.1109 130.627 84.5432C130.455 85.3161 130.101 86.4498 130.145 87.2398C130.185 87.9553 131.338 88.3022 131.734 88.6988C131.953 88.9173 131.172 89.1305 131.135 89.1677C131.052 89.2506 130.667 90.0453 130.627 90.1839C130.414 90.928 130.145 91.4499 130.145 92.2812C130.145 94.1012 131.083 95.1677 131.083 96.8537" stroke="#ECECEC" stroke-width="2" stroke-linecap="round"/>
<path d="M136.711 49.0185C137.746 48.234 139.57 47.4242 140.098 46.2177C140.292 45.7743 140.344 45.1525 140.449 44.6806C140.589 44.05 140.147 43.0759 140.827 42.6874C142.236 41.8826 141.635 38.0716 141.635 36.7471C141.635 35.3435 141.649 33.9907 140.931 32.7348C140.68 32.2944 139.993 31.5617 139.993 31.0804C139.993 29.9054 137.47 27.6803 136.359 27.6803C135.957 27.6803 135.675 27.4665 135.304 27.4458C135.022 27.4302 134.566 27.6188 134.652 27.4458C135.002 26.7472 134.782 25.75 134.548 25.0489C134.188 23.969 133.528 23.0291 133.011 22.0527C132.668 21.4053 131.832 21.4282 131.786 20.6458C131.74 19.8566 128.676 17.9982 128.087 18.5875C127.801 18.8733 128.464 19.1622 127.8 18.5354C127.4 18.1579 126.86 18.2111 126.393 18.0143C125.585 17.6739 124.066 17.3715 123.162 17.6495C122.464 17.8644 122.131 18.5022 122.759 19.0044C123.158 19.324 122.86 19.2388 122.498 19.2388C121.734 19.2388 121.139 19.5832 120.414 19.6948C119.634 19.8148 118.626 20.6005 118.434 21.4665C118.344 21.8692 119.029 22.9708 118.994 22.9906C117.592 23.7918 115.859 25.2626 116.545 26.9769C116.682 27.321 117.544 28.3176 117.821 28.3968C117.958 28.4358 116.779 29.9738 116.779 30.3769C116.779 32.1233 118.468 33.1257 119.775 34.0115C120.843 34.7347 121.787 35.5962 122.824 36.3563C123.354 36.7452 124.285 37.3086 124.7 37.8153C124.82 37.963 123.753 39.1312 123.631 39.4046C123.227 40.3139 124.309 41.4291 124.986 41.9319C125.568 42.3638 129.43 43.4316 129.441 43.6254C129.525 45.0392 133.528 44.9567 134.548 45.0323C134.727 45.0456 134.727 46.5067 134.548 46.9082C134.166 47.7676 134.835 47.9506 134.835 48.7841" stroke="#ECECEC" stroke-width="2" stroke-linecap="round"/>
<path d="M77.4286 9.68204C74.6388 9.80218 71.4397 9.34733 69.3129 11.4742C69.0825 11.7046 68.8521 11.935 68.6216 12.1654C68.1356 12.6514 67.3279 13.8455 67.2904 14.5208C67.2442 15.3507 66.5991 16.2265 66.5991 17.0553C66.5991 17.9495 67.3098 18.8134 67.508 19.7051C67.7395 20.7472 68.7035 21.3898 69.2617 22.2525C70.0949 23.5401 72.1656 24.9077 73.5116 25.5807C74.9153 26.2826 76.4006 26.4437 77.8895 26.784C78.6054 26.9476 79.2083 27.238 79.9632 27.1936C80.2614 27.1761 80.6935 26.6386 81.0001 26.5024C82.2216 25.9594 84.3411 23.8445 84.3411 22.4701C84.3411 21.5911 85.0323 20.5404 85.0323 19.5899C85.0323 18.2992 85.918 16.1123 85.442 14.9816C85.0475 14.0448 84.7924 13.3013 84.2899 12.447C83.8114 11.6336 82.6898 11.0499 81.9089 10.6037C80.244 9.65233 78.3422 9.79323 76.7374 8.9908" stroke="#ECECEC" stroke-width="2" stroke-linecap="round"/>
<path d="M82.4978 11.0645C86.9208 9.57103 91.4993 7.83107 95.6314 5.76498" stroke="#ECECEC" stroke-width="2" stroke-linecap="round"/>
<path d="M85.954 20.742C87.7876 19.2078 90.9946 17.4235 93.4425 18.7834C93.7989 18.9814 94.7153 18.9631 94.9402 19.2443C95.3194 19.7183 97.7626 19.6984 98.2684 19.7691C99.7905 19.9819 101.874 20.5116 103.235 20.5116" stroke="#ECECEC" stroke-width="2" stroke-linecap="round"/>
<path d="M83.189 25.5807C83.7627 28.7361 84.4405 31.8714 85.0323 35.0277" stroke="#ECECEC" stroke-width="2" stroke-linecap="round"/>
<path d="M71.8987 25.8111C70.7324 28.0539 69.287 30.2356 68.0968 32.378C67.706 33.0814 67.1836 33.752 66.5991 34.3365" stroke="#ECECEC" stroke-width="2" stroke-linecap="round"/>
<path d="M67.5208 21.8941C63.8119 23.2647 59.4842 23.1474 56 24.8895" stroke="#ECECEC" stroke-width="2" stroke-linecap="round"/>
<path d="M66.3687 12.6774C64.456 11.867 62.3636 11.1305 60.6083 10.0021C59.4043 9.22803 58.2923 8.29559 56.9217 7.83871" stroke="#ECECEC" stroke-width="2" stroke-linecap="round"/>
<path d="M73.742 10.6037C73.1427 7.80714 73.2812 5.62506 73.2812 3" stroke="#ECECEC" stroke-width="2" stroke-linecap="round"/>
<path d="M58.9323 164.418C57.7873 162.952 55.3192 161.029 55.3192 158.998" stroke="#ECECEC" stroke-width="2" stroke-linecap="round"/>
<path d="M60.2872 158.095C59.9383 156.428 59.3839 154.833 59.3839 153.127" stroke="#ECECEC" stroke-width="2" stroke-linecap="round"/>
<path d="M56.2225 156.74C56.0461 155.836 55.9008 154.94 55.7709 154.03" stroke="#ECECEC" stroke-width="2" stroke-linecap="round"/>
<path d="M53.5127 163.515C51.4769 162.034 49.6301 160.266 48.5447 158.095" stroke="#ECECEC" stroke-width="2" stroke-linecap="round"/>
<path d="M52.1578 156.288C50.8146 154.515 48.5909 152.768 47.6415 150.869" stroke="#ECECEC" stroke-width="2" stroke-linecap="round"/>
<path d="M48.9964 166.224C46.1021 165.172 42.2217 164.418 39.9637 162.16" stroke="#ECECEC" stroke-width="2" stroke-linecap="round"/>
</svg>
