<svg width="184" height="178" viewBox="0 0 184 178" fill="none" xmlns="http://www.w3.org/2000/svg">
<path d="M104.43 171C105.382 168.959 107.583 167.02 108.208 165.074C108.408 164.454 110.373 161.842 111.094 161.476C112.573 160.724 114.179 157.225 115.14 155.868C116.511 153.931 116.565 151.586 117.698 149.571C119.785 145.859 120.278 140.362 121.535 136.45C122.707 132.802 122.636 128.657 122.636 124.81C122.636 122.623 122.892 120.814 123.588 118.725C124.314 116.546 123.913 114.03 124.897 111.952C126.838 107.852 126.384 102.311 126.384 97.9048C126.384 88.9365 126.384 79.9683 126.384 71" stroke="#ECECEC" stroke-width="2" stroke-linecap="round"/>
<path d="M150.642 170C145.534 162.23 150.396 150.994 153.953 143.474C155.177 140.884 155.43 137.975 155.43 135.184C155.43 132.509 155.43 129.833 155.43 127.158C155.43 123.677 154.366 120.342 154.366 116.921C154.366 108.321 150.642 99.6981 150.642 90.9474C150.642 84.4566 150.11 77.643 150.11 71" stroke="#ECECEC" stroke-width="2" stroke-linecap="round"/>
<path d="M129.614 69.3323C126.822 69.3938 121.414 70.9463 118.896 69.0952C116.835 67.5796 116.774 67.3056 116.15 64.8289C115.516 62.314 113.765 62.6958 111.224 62.6958C108.132 62.6958 104.912 61.1903 102.745 59.1669C100.465 57.037 99.6859 53.7099 100.088 50.8713C100.283 49.4985 101.517 49.2352 100.357 48.2114C99.7975 47.718 98.8202 46.9454 98.4462 46.3679C98.1547 45.918 96.3544 45.2075 95.7593 44.6825C94.6346 43.6904 93.9297 43.0623 92.6544 42.3123C89.6679 40.556 87.6167 38.6132 85.4296 36.2552C82.7366 33.3517 86.1085 28.778 88.236 26.4322C89.0841 25.497 92.8181 25.3088 94.1471 25.2471C95.6178 25.1788 97.1132 25.5009 98.4462 24.8784C99.3341 24.4637 99.7113 23.679 100.596 23.2456C101.402 22.8505 102.294 21.8876 102.745 21.1914C103.169 20.5368 103.001 18.9988 103.551 18.6106C104.894 17.6628 106.507 15.0374 106.507 13.3962C106.507 11.1582 105.947 8.68383 107.611 6.97042C109.164 5.37223 113.765 3.4415 116.21 3.4415C119.313 3.4415 120.702 4.76645 123.166 5.91701C126.563 7.50364 132.992 8.93063 136.6 7.33911C138.994 6.28306 140.09 4.02408 141.705 2.28275C142.3 1.64086 143.349 0.457385 143.616 1.28201C144.04 2.59298 149.906 2.57757 150.811 2.73045C153.2 3.1341 155.694 3.53391 157.677 4.75826C157.879 4.88269 162.186 4.38956 162.573 4.38956C167.817 4.38956 169.38 5.00284 169.38 9.4986C169.38 12.4745 168.494 14.4066 167.499 17.2148C166.293 20.6203 170.565 22.425 172.276 24.773C174.353 27.6232 177.517 30.3199 180.964 31.8835C183.558 33.0605 182.131 38.173 181.083 39.8368C178.471 43.9839 176.487 47.9987 173.142 51.793C171.978 53.1131 170.733 55.6405 170.455 57.297C170.264 58.4354 170.112 61.5238 169.082 62.4324C165.595 65.5076 162.775 68.0616 157.14 67.0674C153.925 66.5003 154.498 66.1878 152.602 68.2788C150.652 70.4292 147.086 68.9308 144.123 68.8582C143.015 68.8311 139.769 69.8621 138.869 69.2269C138.09 68.6774 137.076 68.8582 136.063 68.8582" stroke="#ECECEC" stroke-width="2" stroke-linecap="round"/>
<path d="M124.213 23C123.236 24.1651 122.214 24.8842 123.373 26.1571C123.525 26.3246 124.442 27.3714 124.43 27.3714C121.413 27.3714 118.395 27.3714 115.377 27.3714C112.532 27.3714 102.346 27.3839 103.525 31.9857C103.747 32.852 105.349 34.401 106.294 34.7651C107.648 35.2873 107.71 33.1811 106.605 34.4143C104.566 36.6881 107.298 38.4423 109.093 40" stroke="#ECECEC" stroke-width="2" stroke-linecap="round"/>
<path d="M151.987 34C154.77 34.9785 159.125 38.3384 154.189 39.8333C151.944 40.5132 148.968 40.0667 146.637 40.0667C145.17 40.0667 144.144 40.4803 146.056 41.1037C147.692 41.6374 150.118 45.5374 148.93 46.8333C147.171 48.7505 142.594 46.7771 140.43 48" stroke="#ECECEC" stroke-width="2" stroke-linecap="round"/>
<path d="M144.88 10C147.026 10.8153 150.565 13.0887 149.075 15.5914C148.549 16.4748 143.206 19.592 143.413 20.1613C143.65 20.8135 146.295 22.9299 145.114 23.5484C142.747 24.7879 139.076 24.596 136.43 25" stroke="#ECECEC" stroke-width="2" stroke-linecap="round"/>
<path d="M127.43 17.6345C129.844 17.2149 136.43 15.6045 136.43 20" stroke="#ECECEC" stroke-width="2" stroke-linecap="round"/>
<path d="M123.43 45C118.88 46.6025 112.366 47.9576 115.064 52.6522C115.6 53.5849 116.266 56 117.934 56C119.421 56 121.246 54.5773 122.331 55.5217" stroke="#ECECEC" stroke-width="2" stroke-linecap="round"/>
<path d="M154.43 54.7438C158.434 55.3948 162.449 55.0268 164.43 51" stroke="#ECECEC" stroke-width="2" stroke-linecap="round"/>
<path d="M150.43 87C152.985 86.7563 154.563 86.1898 156.313 84.5C156.986 83.8492 157.607 82.3975 158.43 82" stroke="#ECECEC" stroke-width="2" stroke-linecap="round"/>
<path d="M158.43 82C158.63 82.9752 158.726 84.3003 159.235 85.1719C159.504 85.6339 159.232 86.205 159.464 86.691C159.905 87.6146 161.018 88.3782 160.039 89" stroke="#ECECEC" stroke-width="2" stroke-linecap="round"/>
<path d="M159.43 89C158.095 90.2356 156.101 91.0384 154.406 91.7576C153.729 92.0448 152.922 92.4041 152.751 93.1364C152.501 94.2131 151.909 95.0855 151.43 96" stroke="#ECECEC" stroke-width="2" stroke-linecap="round"/>
<path d="M117.43 141.963C115.707 141.963 113.732 142.134 112.153 141.74C110.777 141.397 109.304 141.492 107.851 141.492C106.702 141.492 105.246 141.499 104.148 141.204C103.335 140.985 100.835 140.785 100.43 141.492" stroke="#ECECEC" stroke-width="2" stroke-linecap="round"/>
<path d="M103.43 140.908C103.688 139.813 104.057 139.188 104.922 138.511C105.422 138.121 106.818 137.885 107.145 137.495C107.445 137.136 111.315 136.743 111.716 137.222C112.09 137.669 112.996 137.522 113.43 138.041C113.841 138.532 114.714 138.784 115.208 139.209C116.302 140.15 117.43 140.241 117.43 142" stroke="#ECECEC" stroke-width="2" stroke-linecap="round"/>
<path d="M116.43 140.891C113.714 141.287 112.035 140.505 109.615 140.103C107.327 139.722 109.772 139.682 110.877 139.936C111.588 140.1 112.439 140.102 113.015 140.447C114.197 141.154 113.699 140.269 113.075 139.803C112.373 139.278 109.803 139.292 108.813 139.292C107.777 139.292 106.41 139.701 105.68 140.247C104.801 140.904 106.505 140.506 106.749 140.491C107.253 140.46 108.14 140.039 108.546 139.803C109.254 139.391 111.481 138.558 112.095 139.292C112.678 139.99 114.439 140.546 115.361 140.891" stroke="#ECECEC" stroke-width="2" stroke-linecap="round"/>
<path d="M115.632 144C116.463 146.14 116.43 148.175 116.43 150.412C116.43 151.914 116.263 152.937 115.883 154.271C115.68 154.986 113.854 156.519 113.237 156.884C112.435 157.357 111.157 157.832 110.577 158.561C110.246 158.976 108.529 158.694 108.049 158.694C107.357 158.694 104.553 159.282 104.191 158.828C103.676 158.182 101.491 158.876 100.673 158.219C99.9287 157.621 98.1557 157.731 97.5396 156.958C97.2706 156.62 96.8664 156.38 96.5345 155.963C96.1893 155.53 96.8448 154.108 96.4753 155.221" stroke="#ECECEC" stroke-width="2" stroke-linecap="round"/>
<path d="M100.43 144C100.149 144.643 99.8284 145.416 99.6276 146.026C99.5985 146.115 99.682 146.98 99.4004 146.789C98.941 146.479 97.9075 146.368 97.295 146.368C95.9548 146.368 94.5219 146.94 94.4323 148.263C94.349 149.492 97.0254 149.824 96.2044 150.395C95.5248 150.867 95.2502 150.817 95.2502 151.697C95.2502 151.959 95.1028 152.502 95.5228 152.526C95.6243 152.532 95.2502 152.563 95.2502 153" stroke="#ECECEC" stroke-width="2" stroke-linecap="round"/>
<path d="M101.486 146C101.143 147.685 102.426 148.61 104.051 147.546C105.472 146.616 102.48 146.221 102.026 146.221" stroke="#ECECEC" stroke-width="2" stroke-linecap="round"/>
<path d="M96.4304 154C98.2447 154 100.43 153.347 100.43 151" stroke="#ECECEC" stroke-width="2" stroke-linecap="round"/>
<path d="M96.4304 141H101.43" stroke="#ECECEC" stroke-width="2" stroke-linecap="round"/>
<path d="M103.43 139C101.973 139.285 100.177 139.68 99.4309 140.988C99.3855 141.067 102.285 140.76 102.63 140.068" stroke="#ECECEC" stroke-width="2" stroke-linecap="round"/>
<path d="M108.781 160.476C107.111 162.015 105.654 163.11 104.272 164.836C103.772 165.462 103.382 166.914 102.451 167.18C101.374 167.488 100.213 168.209 99.1063 168.27C97.9144 168.336 96.3687 167.958 95.2243 168.285C92.8929 168.951 90.2621 168.808 87.6842 168.808C85.2014 168.808 82.2428 169.192 79.9053 168.524C77.8175 167.928 75.3435 167.464 73.0371 167.464C72.2046 167.464 70.0746 167.187 69.5433 166.523C68.9305 165.757 68.6567 165.951 68.8863 164.508C69.0696 163.356 69.5613 162.467 70.6183 161.88C72.6951 160.726 74.6795 159.342 76.4712 157.729C77.9773 156.374 79.6186 154.026 81.906 154.026" stroke="#ECECEC" stroke-width="2" stroke-linecap="round"/>
<path d="M89.9686 162.358C87.5464 161.885 85.1633 161.82 82.7123 161.82C82.0636 161.82 79.8318 161.894 81.04 160.685C82.3076 159.418 83.5705 158.569 85.1311 157.789" stroke="#ECECEC" stroke-width="2" stroke-linecap="round"/>
<path d="M81.6373 154.564C82.5318 155.263 83.8066 156.484 84.3248 157.52" stroke="#ECECEC" stroke-width="2" stroke-linecap="round"/>
<path d="M83.5185 154.564C84.4059 154.75 85.2641 154.917 86.0568 155.37C86.2613 155.487 86.3975 155.828 86.6242 155.893C86.9623 155.989 87.0077 156.425 87.2662 156.4C88.4983 156.283 89.5709 155.534 90.76 155.385C91.5685 155.284 92.0954 155.08 91.0437 155.699C90.2184 156.184 90.2484 156.681 89.9687 157.52" stroke="#ECECEC" stroke-width="2" stroke-linecap="round"/>
<path d="M86.4748 157.789C86.7551 157.844 89.5779 158.014 89.2968 157.789C88.9959 157.548 88.8936 157.368 88.8936 156.983" stroke="#ECECEC" stroke-width="2" stroke-linecap="round"/>
<path d="M88.6249 156.445C87.6325 156.283 86.651 156.104 85.6686 155.908" stroke="#ECECEC" stroke-width="2" stroke-linecap="round"/>
<path d="M89.9687 154.833C88.4833 154.833 87.1621 154.564 85.6686 154.564" stroke="#ECECEC" stroke-width="2" stroke-linecap="round"/>
<path d="M97.4938 158.595C95.6658 158.969 94.2227 159.401 92.3874 159.401C91.3021 159.401 90.4543 159.133 89.4311 159.133" stroke="#ECECEC" stroke-width="2" stroke-linecap="round"/>
<path d="M75.1871 158.058C69.4664 158.058 63.9272 158.326 58.2556 158.326" stroke="#ECECEC" stroke-width="2" stroke-linecap="round"/>
<path d="M59.8681 172.033C59.1736 172.033 55.2584 172.538 54.5527 171.973C53.7798 171.355 52.6248 171.658 51.8652 170.898C50.2472 169.28 47.732 169.154 46.1019 167.524C44.85 166.272 43.3043 163.503 43.2053 161.82C43.0704 159.527 42.399 157.251 42.399 154.833C42.399 152.331 42.7968 150.221 42.9366 147.845C42.9985 146.793 43.7832 144.807 44.4894 144.023C45.2529 143.174 46.176 142.673 47.0276 141.992C47.6261 141.513 50.1808 141.932 50.9992 141.932C52.3494 141.932 53.6928 141.469 55.0305 141.395C56.2752 141.326 57.3986 141.664 58.5243 141.664C59.8692 141.664 61.0375 142.365 62.3466 142.47C62.5908 142.489 63.9409 142.664 64.1085 142.798C64.5683 143.166 65.304 142.733 65.721 143.067C66.6615 143.819 66.5953 141.078 66.3779 140.589C65.518 138.654 64.209 135.237 66.0495 133.601C67.2482 132.535 68.0506 133.457 69.2745 133.601C70.6889 133.767 71.2167 135.334 72.0218 136.229C73.3634 137.719 72.7683 141.023 72.7683 143.007C72.7683 145.092 70.4175 146.017 69.0655 147.098C68.1366 147.841 66.445 147.576 65.2432 147.576C63.9038 147.576 62.7759 148.114 61.4806 148.114C59.3808 148.114 56.8512 148.553 55.0305 149.517C52.9958 150.594 52.343 152.581 52.343 154.833" stroke="#ECECEC" stroke-width="2" stroke-linecap="round"/>
<path d="M56.643 157.789C55.9894 156.212 55.3947 155.111 55.2993 153.489C55.2574 152.776 54.493 152.127 54.493 151.339" stroke="#ECECEC" stroke-width="2" stroke-linecap="round"/>
<path d="M42.399 146.232C41.3842 147.05 37.994 149.758 37.5764 151.219C37.3295 152.083 36.8368 152.849 36.2774 153.548C35.9258 153.988 35.9811 155.022 35.5458 155.37C35.0524 155.765 35.22 156.812 34.7246 157.236C34.4081 157.508 33.8514 158.66 33.7989 159.133C33.6278 160.673 33.7854 162.67 33.3211 164.179C33.1191 164.836 32.7597 165.781 32.7239 166.389C32.676 167.203 32.9843 167.995 32.3207 167.464C31.4822 166.793 30.9291 165.624 29.9169 165.045C28.2443 164.089 25.8841 164.778 24.6015 166.061C24.0959 166.566 24.0191 167.465 23.8699 168.136C23.7237 168.794 23.3175 169.446 23.3175 170.152" stroke="#ECECEC" stroke-width="2" stroke-linecap="round"/>
<path d="M40.7865 160.745C39.8643 161.962 37.9222 163.75 37.8302 165.314C37.7753 166.248 37.3713 166.919 36.9642 167.733C36.5938 168.474 36.7065 169.593 36.7552 170.42C36.8107 171.363 36.7552 172.299 36.7552 173.377" stroke="#ECECEC" stroke-width="2" stroke-linecap="round"/>
<path d="M42.399 160.745C41.5458 161.078 40.7714 161.368 39.9803 161.82" stroke="#ECECEC" stroke-width="2" stroke-linecap="round"/>
<path d="M1 176.511C7.83138 175.418 14.9224 175.7 21.8673 175.7C27.0597 175.7 32.214 174.889 37.4164 174.889C41.0522 174.889 45.325 174.078 49.067 174.078C52.0833 174.078 55.0041 173.266 57.9908 173.266C60.7664 173.266 63.4903 174.078 66.0808 174.078C69.0726 174.078 73.2471 174.041 76.1764 174.573C80.7335 175.402 85.3843 174.601 89.9678 174.483C93.7759 174.386 97.6423 173.672 101.438 173.672C105.354 173.672 109.109 172.861 112.998 172.861C127.609 172.861 142.147 171.644 156.761 171.644" stroke="#ECECEC" stroke-width="2" stroke-linecap="round"/>
<path d="M102.001 174.078C102.64 173.2 103.561 172.176 104.03 171.238" stroke="#ECECEC" stroke-width="2" stroke-linecap="round"/>
<path d="M58.5992 173.266C59.9105 173.296 62.1573 174.344 61.4386 173.086C61.1464 172.575 60.3403 172.455 59.8161 172.455C58.9549 172.455 57.3576 171.693 56.9767 172.455" stroke="#ECECEC" stroke-width="2" stroke-linecap="round"/>
<path d="M21.2814 170.427C21.7669 171.587 22.5605 173.986 24.1208 174.078C24.4175 174.095 26.4198 174.42 25.3377 174.483C23.025 174.619 23.3096 171.958 23.3096 170.427" stroke="#ECECEC" stroke-width="2" stroke-linecap="round"/>
<path d="M60.6274 160.286C60.6911 162.837 61.2771 165.12 60.0189 167.385C59.3156 168.651 59.4105 170.581 59.4105 172.049" stroke="#ECECEC" stroke-width="2" stroke-linecap="round"/>
<path d="M111.331 138.382C110.509 138.382 107.338 137.444 106.869 138.382" stroke="#ECECEC" stroke-width="2" stroke-linecap="round"/>
</svg>
