<svg width="65" height="60" viewBox="0 0 65 60" fill="none" xmlns="http://www.w3.org/2000/svg">
<path d="M64.469 15.7498C64.4394 15.4713 64.2906 15.2103 64.0488 15.0126C63.8069 14.8148 63.4875 14.6932 63.1467 14.6691C64.1573 13.0914 64.6149 11.3161 64.469 9.53914C64.4394 9.26067 64.2906 8.99966 64.0488 8.80194C63.8069 8.60422 63.4875 8.48262 63.1467 8.45851C61.527 8.38619 59.9052 8.56349 58.3659 8.98101C58.8687 8.14964 59.1368 7.23658 59.1506 6.30914C59.1506 3.06731 55.5614 0.561685 55.4161 0.45481C55.1538 0.273978 54.8219 0.174774 54.4788 0.174774C54.1357 0.174774 53.8037 0.273978 53.5415 0.45481C53.3962 0.561685 49.807 3.06731 49.807 6.30914C49.8204 7.24038 50.0885 8.15736 50.5917 8.99289C49.0392 8.56741 47.4022 8.38608 45.7673 8.45851C45.4264 8.48262 45.107 8.60422 44.8651 8.80194C44.6233 8.99966 44.4745 9.26067 44.445 9.53914C44.3007 11.3211 44.7635 13.1009 45.7819 14.681C45.441 14.7052 45.1215 14.8267 44.8796 15.0244C44.6378 15.2222 44.489 15.4832 44.4595 15.7616C44.3165 17.5398 44.7792 19.3155 45.7964 20.8916C45.4555 20.9159 45.1361 21.0373 44.8941 21.2351C44.6523 21.4328 44.5035 21.6938 44.474 21.9723C44.3297 23.7542 44.7926 25.5341 45.8109 27.1141C45.47 27.1382 45.1506 27.2598 44.9087 27.4576C44.6669 27.6553 44.5181 27.9163 44.4886 28.1948C44.4886 28.361 44.0962 32.1966 46.9008 34.4885C48.604 35.7213 50.7873 36.4197 53.062 36.4598V46.1023C51.7247 46.2758 50.4525 46.6936 49.3404 47.3249C48.2283 47.9561 47.3049 48.7843 46.6392 49.7479C44.8514 49.1145 42.8727 48.9324 40.9575 49.2254C40.1998 48.214 39.18 47.3506 37.9698 46.696C36.7598 46.0416 35.3887 45.6118 33.9534 45.4373V36.4598C36.2187 36.4173 38.3918 35.7186 40.0856 34.4885C42.8901 32.1966 42.5123 28.361 42.4978 28.1948C42.4681 27.9163 42.3195 27.6553 42.0775 27.4576C41.8356 27.2598 41.5162 27.1382 41.1754 27.1141C42.1936 25.5341 42.6565 23.7542 42.5123 21.9723C42.4827 21.6938 42.3339 21.4328 42.0921 21.2351C41.8501 21.0373 41.5307 20.9159 41.19 20.8916C42.1996 19.3097 42.6524 17.5296 42.4978 15.7498C42.4667 15.4789 42.3227 15.2249 42.0899 15.0304C41.8571 14.8359 41.5496 14.7125 41.219 14.681C42.2372 13.1009 42.7001 11.3211 42.5559 9.53914C42.5263 9.26067 42.3776 8.99966 42.1357 8.80194C41.8937 8.60422 41.5743 8.48262 41.2336 8.45851C39.6139 8.3856 37.9919 8.56289 36.4528 8.98101C36.9492 8.14774 37.217 7.23586 37.2375 6.30914C37.2375 3.06731 33.6483 0.561685 33.4884 0.45481C33.2273 0.277077 32.8982 0.179761 32.5584 0.179761C32.2185 0.179761 31.8894 0.277077 31.6284 0.45481C31.4686 0.561685 27.8794 3.06731 27.8794 6.30914C27.8978 7.24121 28.1708 8.15819 28.6786 8.99289C27.1025 8.56218 25.4406 8.38085 23.7815 8.45851C23.4433 8.48535 23.1272 8.60802 22.8883 8.8055C22.6494 9.00298 22.5026 9.26257 22.4737 9.53914C22.3097 11.3196 22.7629 13.1016 23.7815 14.681C23.4433 14.7079 23.1272 14.8305 22.8883 15.028C22.6494 15.2255 22.5026 15.4851 22.4737 15.7616C22.3124 17.538 22.7657 19.3157 23.7815 20.8916C23.4433 20.9185 23.1272 21.0411 22.8883 21.2386C22.6494 21.4361 22.5026 21.6957 22.4737 21.9723C22.3097 23.7527 22.7629 25.5348 23.7815 27.1141C23.4433 27.141 23.1272 27.2636 22.8883 27.4611C22.6494 27.6586 22.5026 27.9182 22.4737 28.1948C22.4737 28.361 22.0669 32.1966 24.8859 34.4885C26.5878 35.723 28.772 36.4219 31.0472 36.4598V45.4373C29.7344 45.5978 28.4744 45.9716 27.3413 46.5365C26.2083 47.1015 25.2251 47.8462 24.45 48.7266C21.7586 48.0588 18.8645 48.1935 16.2834 49.1066C15.1482 48.0995 13.6441 47.4204 11.9967 47.171V36.4835C14.262 36.441 16.4351 35.7424 18.1289 34.5123C20.9334 32.2204 20.5556 28.3848 20.5411 28.2185C20.5114 27.94 20.3626 27.679 20.1208 27.4813C19.8789 27.2836 19.5595 27.162 19.2187 27.1379C20.2369 25.5578 20.6998 23.778 20.5556 21.996C20.526 21.7175 20.3772 21.4565 20.1354 21.2588C19.8934 21.0611 19.574 20.9396 19.2333 20.9154C20.2483 19.3264 20.7011 17.5375 20.5411 15.7498C20.5114 15.4713 20.3626 15.2103 20.1208 15.0126C19.8789 14.8148 19.5595 14.6932 19.2187 14.6691C20.2369 13.0891 20.6998 11.3092 20.5556 9.52726C20.526 9.24879 20.3772 8.98778 20.1354 8.79006C19.8934 8.59234 19.574 8.47086 19.2333 8.44664C17.6136 8.37432 15.9918 8.55161 14.4525 8.96914C14.9553 8.13777 15.2234 7.2247 15.2372 6.29726C15.2372 3.05543 11.6479 0.54981 11.5026 0.442935C11.2403 0.262103 10.9085 0.162899 10.5654 0.162899C10.2223 0.162899 9.89025 0.262103 9.6281 0.442935C9.48279 0.54981 5.89357 3.05543 5.89357 6.29726C5.90694 7.2285 6.17504 8.14549 6.67826 8.98101C5.12574 8.55577 3.4888 8.37444 1.85388 8.44664C1.51298 8.47086 1.19358 8.59234 0.951639 8.79006C0.709839 8.98778 0.561039 9.24879 0.531541 9.52726C0.387318 11.3092 0.850066 13.0891 1.86842 14.6691C1.5249 14.6906 1.20201 14.811 0.957161 15.009C0.71231 15.2068 0.561475 15.4694 0.531541 15.7498C0.388495 17.5279 0.851229 19.3036 1.86842 20.8798C1.52751 20.9039 1.20812 21.0255 0.966171 21.2232C0.724371 21.4209 0.57557 21.6819 0.546071 21.9604C0.401849 23.7423 0.864596 25.5222 1.88295 27.1023C1.54204 27.1265 1.22265 27.248 0.980702 27.4457C0.738902 27.6434 0.590101 27.9044 0.560603 28.1829C0.560603 28.3491 0.168201 32.1848 2.97279 34.4766C4.676 35.7094 6.85932 36.4079 9.13404 36.4479V47.1354C7.2181 47.4257 5.50428 48.2912 4.32986 49.5618C3.1553 50.8324 2.605 52.4162 2.78723 54.0016C2.9693 55.5871 3.87082 57.0594 5.31421 58.1291C6.7576 59.1988 8.63853 59.7886 10.5872 59.7823H58.7437C58.9139 59.7745 59.0811 59.7424 59.2378 59.6873C59.2901 59.6749 59.3394 59.6547 59.3831 59.6279C59.4354 59.639 59.4905 59.639 59.5429 59.6279C61.0684 58.8034 62.2533 57.621 62.9417 56.2362C63.63 54.8513 63.7899 53.3287 63.4 51.8683C63.0102 50.4079 62.0891 49.0779 60.7576 48.0531C59.426 47.0283 57.7463 46.3566 55.9392 46.126V36.4598C58.2045 36.4173 60.3776 35.7186 62.0714 34.4885C64.8759 32.1966 64.4981 28.361 64.4836 28.1948C64.4539 27.9163 64.3053 27.6553 64.0633 27.4576C63.8214 27.2598 63.502 27.1382 63.1612 27.1141C64.1694 25.5317 64.6221 23.7521 64.469 21.9723C64.4394 21.6938 64.2906 21.4328 64.0488 21.2351C63.8069 21.0373 63.4875 20.9159 63.1467 20.8916C64.1614 19.3108 64.6191 17.5308 64.469 15.7498ZM61.5628 17.056C61.522 18.2709 60.9791 19.4387 60.0225 20.3691C58.8925 21.1708 57.4632 21.6355 55.9683 21.6873C56.0043 20.4717 56.5478 19.3028 57.5086 18.3741C58.6368 17.5719 60.0681 17.1108 61.5628 17.0679V17.056ZM51.3909 18.3266C52.384 19.2618 52.949 20.4497 52.9894 21.6873C51.5009 21.6507 50.0718 21.2028 48.9351 20.4166C47.9691 19.4898 47.4204 18.3206 47.3803 17.1035C48.8491 17.1344 50.2623 17.5696 51.3909 18.3385V18.3266ZM51.3909 24.5373C52.3716 25.4645 52.9354 26.6376 52.9894 27.8623C51.5002 27.8285 50.0699 27.3803 48.9351 26.5916C47.9671 25.6657 47.4181 24.4959 47.3803 23.2785C48.853 23.3249 50.2646 23.7722 51.3909 24.5491V24.5373ZM59.9789 26.5798C58.8446 27.3692 57.4138 27.8176 55.9247 27.8504C55.963 26.6352 56.5062 25.4668 57.465 24.5373C58.6163 23.7496 60.0616 23.3057 61.5628 23.2785C61.522 24.4934 60.9791 25.6612 60.0225 26.5916L59.9789 26.5798ZM59.9789 14.1466C58.8446 14.9361 57.4138 15.3845 55.9247 15.4173C55.963 14.2021 56.5062 13.0337 57.465 12.1041C58.6163 11.3165 60.0616 10.8726 61.5628 10.8454C61.5266 12.061 60.9831 13.23 60.0225 14.1585L59.9789 14.1466ZM54.4861 3.06731C55.5118 3.95124 56.1374 5.09504 56.2589 6.30914C56.1374 7.52336 55.5118 8.66716 54.4861 9.55101C53.4722 8.66181 52.8531 7.52027 52.7278 6.30914C52.8497 5.09741 53.4693 3.95504 54.4861 3.06731ZM51.3909 12.116C52.3507 13.0459 52.8985 14.2133 52.9458 15.4291C51.4554 15.4002 50.0232 14.9513 48.8915 14.1585C47.9235 13.2326 47.3745 12.0628 47.3367 10.8454C48.8246 10.8839 50.253 11.3317 51.3909 12.116ZM48.9351 32.8141C47.9691 31.8873 47.4204 30.7181 47.3803 29.501C48.8545 29.542 50.2682 29.9898 51.3909 30.7716C52.3558 31.6991 52.9043 32.8679 52.9458 34.0848C51.4724 34.0402 50.0601 33.5928 48.9351 32.8141ZM38.0222 26.5916C36.8852 27.3852 35.4481 27.8341 33.9534 27.8623C33.9982 26.646 34.5463 25.4781 35.5083 24.5491C36.6449 23.7631 38.074 23.3152 39.5625 23.2785C39.5286 24.4945 38.9849 25.6641 38.0222 26.5916ZM38.0222 20.381C36.8876 21.1826 35.452 21.6433 33.9534 21.6873C33.9947 20.4704 34.5432 19.3016 35.5083 18.3741C36.6413 17.5831 38.0726 17.1345 39.5625 17.1035C39.5097 18.3057 38.9677 19.4592 38.0222 20.381ZM29.4342 18.3385C30.4347 19.2662 31.0055 20.4512 31.0472 21.6873C29.56 21.6452 28.1331 21.1979 26.9929 20.4166C26.033 19.4868 25.4852 18.3195 25.4381 17.1035C26.9029 17.1333 28.3118 17.5688 29.4342 18.3385ZM29.4342 24.5491C30.4212 25.4696 30.9906 26.6394 31.0472 27.8623C29.5579 27.8295 28.1271 27.3811 26.9929 26.5916C26.031 25.6628 25.4829 24.4949 25.4381 23.2785C26.9069 23.323 28.3147 23.7706 29.4342 24.5491ZM38.0222 32.8616C36.8738 33.6332 35.4397 34.0642 33.9534 34.0848C33.9947 32.8679 34.5432 31.6991 35.5083 30.7716C36.6413 29.9806 38.0726 29.532 39.5625 29.501C39.5195 30.7156 38.9767 31.8828 38.0222 32.8141V32.8616ZM38.0222 14.206C36.8772 14.9825 35.441 15.4143 33.9534 15.4291C33.9982 14.2129 34.5463 13.045 35.5083 12.116C36.6449 11.33 38.074 10.8821 39.5625 10.8454C39.5251 12.0608 38.9818 13.2295 38.0222 14.1585V14.206ZM32.5003 3.06731C33.526 3.95124 34.1516 5.09504 34.2731 6.30914C34.1516 7.52336 33.526 8.66716 32.5003 9.55101C31.4763 8.66609 30.8511 7.52288 30.7275 6.30914C30.849 5.09504 31.4744 3.95124 32.5003 3.06731ZM29.4342 12.116C30.4232 13.0354 30.993 14.2059 31.0472 15.4291C29.5587 15.3926 28.1296 14.9446 26.9929 14.1585C26.031 13.2297 25.4829 12.0617 25.4381 10.8454C26.9069 10.8899 28.3147 11.3375 29.4342 12.116ZM26.9348 32.8141C25.9749 31.8843 25.4271 30.717 25.38 29.501C26.8697 29.532 28.301 29.9806 29.4342 30.7716C30.4252 31.69 30.9954 32.861 31.0472 34.0848C29.54 34.0533 28.0905 33.6054 26.9348 32.8141ZM16.0654 26.5916C14.9336 27.3844 13.5014 27.8333 12.0112 27.8623C12.075 26.6428 12.6378 25.4761 13.6097 24.5491C14.7475 23.7648 16.1759 23.317 17.6639 23.2785C17.6162 24.5008 17.0512 25.6717 16.0654 26.5916ZM16.0654 20.381C14.9365 21.1825 13.5056 21.6436 12.0112 21.6873C12.0548 20.4537 12.6197 19.2705 13.6097 18.3385C14.7438 17.5492 16.1746 17.1008 17.6639 17.0679C17.6114 18.2894 17.0472 19.459 16.0654 20.381ZM7.49201 18.3385C8.46008 19.2784 9.00835 20.4593 9.04685 21.6873C7.55522 21.6459 6.12317 21.1988 4.9781 20.4166C4.01425 19.4758 3.47092 18.2947 3.43779 17.0679C4.92695 17.1008 6.3577 17.5492 7.49201 18.3385ZM7.49201 24.5491C8.44788 25.481 8.99527 26.6471 9.04685 27.8623C7.55391 27.8265 6.11968 27.3786 4.9781 26.5916C4.02137 25.6612 3.47848 24.4934 3.43779 23.2785C4.92565 23.317 6.35407 23.7648 7.49201 24.5491ZM16.0654 32.8616C14.9306 33.6503 13.5002 34.0985 12.0112 34.1323C12.0515 32.8947 12.6165 31.7068 13.6097 30.7716C14.7438 29.9823 16.1746 29.5339 17.6639 29.501C17.6114 30.7225 17.0472 31.8922 16.0654 32.8141V32.8616ZM16.0654 14.206C14.9336 14.9988 13.5014 15.4477 12.0112 15.4766C12.0621 14.2407 12.6258 13.0557 13.6097 12.116C14.7475 11.3317 16.1759 10.8839 17.6639 10.8454C17.6138 12.0673 17.0492 13.2376 16.0654 14.1585V14.206ZM10.5436 3.11481C11.5693 3.99874 12.1949 5.14254 12.3164 6.35664C12.1949 7.57086 11.5693 8.71466 10.5436 9.59851C9.52391 8.7124 8.90387 7.56908 8.78529 6.35664C8.88846 5.1271 9.50982 3.96478 10.5436 3.06731V3.11481ZM7.49201 12.1635C8.44599 13.0962 8.99294 14.2618 9.04685 15.4766C7.55246 15.4465 6.11619 14.998 4.9781 14.206C4.00901 13.2629 3.46526 12.0767 3.43779 10.8454C4.92565 10.8839 6.35407 11.3317 7.49201 12.116V12.1635ZM4.9781 32.8141C4.0234 31.8828 3.48066 30.7156 3.43779 29.501C4.93204 29.5312 6.36831 29.9798 7.50654 30.7716C8.46546 31.702 9.01314 32.8691 9.06138 34.0848C7.56467 34.0461 6.12709 33.5987 4.9781 32.8141ZM60.6909 53.4291C60.6886 54.2048 60.4671 54.9696 60.0437 55.6638C59.6203 56.3579 59.0062 56.9628 58.2497 57.431H10.5436C9.69189 57.4322 8.85446 57.2523 8.11366 56.909C7.37271 56.5658 6.75382 56.071 6.31759 55.4733C5.88137 54.8755 5.64276 54.1954 5.62533 53.4996C5.60789 52.8038 5.81205 52.1161 6.21805 51.5043C6.62391 50.8925 7.21751 50.3774 7.94059 50.0096C8.66366 49.642 9.49122 49.4341 10.3422 49.4067C11.1933 49.3793 12.0383 49.5331 12.7946 49.8532C13.5508 50.1732 14.1922 50.6485 14.6559 51.2323C14.7383 51.3332 14.8415 51.4216 14.9611 51.4935H15.0628C15.1966 51.5642 15.344 51.6164 15.4987 51.6479H15.6004H15.8329H16.0073H16.1236C16.2777 51.6276 16.4257 51.5833 16.5595 51.5173C17.7514 50.9639 19.0834 50.6428 20.452 50.579C21.8205 50.5151 23.1887 50.7102 24.45 51.1491C24.5226 51.1491 24.5953 51.1491 24.6679 51.1491H24.9586L25.2347 51.3748H25.5108L25.7433 51.2798C25.8307 51.2432 25.9136 51.1995 25.9903 51.1491C26.0561 51.0952 26.1145 51.0355 26.1647 50.971C26.1647 50.971 26.2809 50.8879 26.31 50.8285C26.9264 49.8898 27.8517 49.1106 28.9817 48.579C30.1115 48.0475 31.4009 47.7848 32.7039 47.8206C34.0067 47.8564 35.2715 48.1894 36.3551 48.7817C37.4387 49.3742 38.298 50.2025 38.8359 51.1729C38.8924 51.2818 38.9711 51.3822 39.0684 51.4698C39.1727 51.5614 39.2957 51.6378 39.4317 51.6954H39.577L39.9112 51.7785H40.1292C40.2018 51.7785 40.26 51.7785 40.3326 51.7785C40.4197 51.7845 40.5072 51.7845 40.5942 51.7785C41.5595 51.5208 42.5837 51.4446 43.5902 51.5556C44.5967 51.6667 45.5594 51.9621 46.4067 52.4198L46.5956 52.491H46.7119C46.8739 52.5435 47.0461 52.5716 47.2204 52.5741C47.3992 52.5706 47.576 52.5426 47.7436 52.491H47.8744C47.9835 52.4454 48.0859 52.3896 48.1795 52.3248L48.2958 52.2298C48.3848 52.1483 48.4584 52.0563 48.5137 51.9566V51.8854C48.5137 51.8854 48.5137 51.8854 48.5137 51.826C48.9292 50.8368 49.713 49.9786 50.7553 49.3717C51.7976 48.7648 53.0463 48.4396 54.3262 48.4416C55.1458 48.4243 55.9616 48.54 56.7264 48.7817C57.491 49.0236 58.1895 49.3869 58.7814 49.8507C59.3731 50.3144 59.8467 50.8695 60.1743 51.4838C60.5022 52.0979 60.6777 52.7592 60.6909 53.4291ZM60.0225 32.8141C58.8808 33.6011 57.4467 34.049 55.9537 34.0848C55.995 32.8679 56.5436 31.6991 57.5086 30.7716C58.6427 29.9823 60.0735 29.5339 61.5628 29.501C61.522 30.7159 60.9791 31.8837 60.0225 32.8141Z" fill="#F3F5FA"/>
</svg>
