<svg width="89" height="68" viewBox="0 0 89 68" fill="none" xmlns="http://www.w3.org/2000/svg">
<g clip-path="url(#clip0_30_89)">
<path d="M73.2814 0C71.2189 2.34701 60.666 12.7034 57.4078 42.11L59.3909 67.994H64.301C64.3104 49.9254 61.5106 22.6327 73.2814 0Z" fill="#F3F5FA"/>
<path d="M79.768 7.37833C79.768 7.37833 66.0393 36.114 64.0806 67.9987H71.1396C71.1396 67.9987 70.61 33.7973 79.768 7.37833Z" fill="#F3F5FA"/>
<path d="M77.3296 55.35C77.3296 55.35 82.4697 27.2382 88.9954 24.5465C88.9954 24.5465 81.5851 54.2129 81.3259 67.9914H75.9191L77.3296 55.35Z" fill="#F3F5FA"/>
<path d="M12.7473 51.3695V19.9848C12.7473 19.9848 20.8749 36.796 22.08 51.3695C23.285 65.943 23.1416 67.9952 23.1416 67.9952H15.6755L12.7473 51.3695Z" fill="#F3F5FA"/>
<path d="M24.4715 47.2798C24.4715 47.2798 26.071 29.2356 26.4034 18.4811C26.4034 18.4811 29.8005 42.0992 29.8005 54.9519L26.4034 57.5768L24.4715 47.2798Z" fill="#F3F5FA"/>
<path d="M40.7454 53.4326V25.1411C40.7454 25.1411 33.6432 40.6904 32.5934 53.4326C31.5435 66.1748 31.66 67.9952 31.66 67.9952H38.1859L40.7454 53.4326Z" fill="#F3F5FA"/>
<path d="M45.75 51.867C47.4457 44.4906 48.654 37.0022 49.3664 29.4541C49.3664 29.4541 52.8662 55.1813 51.1689 67.9952H45.2694L45.75 51.867Z" fill="#F3F5FA"/>
<path d="M34.6325 67.9952H26.4081C26.9203 57.3973 29.2336 42.524 29.2336 42.524C31.3486 28.0184 37.0497 9.80669 42.1687 7.94629C39.8122 14.15 31.2143 34.7925 34.6325 67.9952Z" fill="#F3F5FA"/>
<path d="M15.5005 52.1584C15.5005 52.1584 9.76779 24.555 0 11.5833C0 11.5833 9.70379 49.0649 9.75866 67.9976H17.2247L15.5005 52.1584Z" fill="#F3F5FA"/>
<path d="M13.9139 5.94642C13.9139 5.94642 27.43 36.0546 29.0655 68.0001H22.0042C22.01 67.9952 22.8033 32.6688 13.9139 5.94642Z" fill="#F3F5FA"/>
<path d="M71.9283 20.2542C71.9283 20.2542 61.9434 44.2605 60.729 67.8641H65.9448C65.9437 67.8616 65.3604 39.9987 71.9283 20.2542Z" fill="#F3F5FA"/>
<path d="M79.768 51.4059V20.1206C79.768 20.1206 73.2827 40.3566 71.618 51.4036C69.4469 65.7829 70.6846 67.994 70.6846 67.994H77.2083L79.768 51.4059Z" fill="#F3F5FA"/>
<path d="M39.8472 57.8499C39.8472 57.8499 41.7066 28.0681 47.6213 22.4214C47.6213 22.4214 44.6757 54.5734 46.4279 67.9952H36.7243L39.8472 57.8499Z" fill="#F3F5FA"/>
<path d="M59.3992 67.9952H49.3664L50.8318 47.5105C53.0558 35.29 54.0061 22.8556 53.6665 10.4231C53.6665 10.4231 60.1925 43.9183 59.3992 67.9952Z" fill="#F3F5FA"/>
</g>
<defs>
<clipPath id="clip0_30_89">
<rect width="89" height="68" fill="white"/>
</clipPath>
</defs>
</svg>
