<svg width="81" height="82" viewBox="0 0 81 82" fill="none" xmlns="http://www.w3.org/2000/svg">
<path d="M80 41C80 63.103 62.3037 81 40.5 81C18.6963 81 1 63.103 1 41C1 18.897 18.6963 1 40.5 1C62.3037 1 80 18.897 80 41Z" stroke="#ECECEC" stroke-width="2"/>
<path d="M70.1566 21.8512L59.1566 10.8512C58.8147 10.5047 58.39 10.2512 57.9228 10.1147C57.4555 9.97825 56.9612 9.96327 56.4866 10.0712C56.0269 10.1748 55.6016 10.3947 55.2514 10.7099C54.9012 11.0251 54.6378 11.425 54.4866 11.8712L53.0066 16.3712C52.7687 17.0969 52.7363 17.8743 52.9127 18.6173C53.0892 19.3603 53.4678 20.04 54.0066 20.5812L55.1866 21.7612L33.6566 43.2912L27.2666 36.8912C27.0749 36.7085 26.8213 36.6049 26.5566 36.6012C26.4249 36.6004 26.2945 36.6257 26.1726 36.6754C26.0508 36.7252 25.94 36.7985 25.8466 36.8912L17.9166 44.8312C15.9565 46.7848 14.5121 49.1944 13.7127 51.8438C12.9134 54.4932 12.7841 57.2996 13.3366 60.0112L14.5066 65.7312C14.5457 65.9234 14.6406 66.0998 14.7793 66.2385C14.918 66.3772 15.0944 66.472 15.2866 66.5112L21.0066 67.6812C23.7167 68.2283 26.5202 68.0964 29.167 67.2973C31.8139 66.4982 34.2219 65.0567 36.1766 63.1012L44.1166 55.1712C44.2103 55.0782 44.2847 54.9676 44.3354 54.8458C44.3862 54.7239 44.4124 54.5932 44.4124 54.4612C44.4124 54.3292 44.3862 54.1985 44.3354 54.0766C44.2847 53.9548 44.2103 53.8442 44.1166 53.7512L37.7166 47.3612L59.2566 25.8312L60.4366 27.0112C60.9778 27.55 61.6575 27.9285 62.4005 28.105C63.1435 28.2815 63.9209 28.249 64.6466 28.0112L69.1366 26.4912C69.5825 26.3298 69.9803 26.0583 70.293 25.7017C70.6056 25.3452 70.823 24.9154 70.9248 24.4522C71.0266 23.9891 71.0096 23.5077 70.8753 23.0529C70.7409 22.5981 70.4937 22.1847 70.1566 21.8512V21.8512ZM42.0066 54.4612L34.7666 61.6812C33.0465 63.4011 30.9262 64.6669 28.5961 65.3651C26.266 66.0633 23.799 66.1719 21.4166 65.6812L16.3366 64.6812L15.3366 59.6012C14.8459 57.2188 14.9545 54.7518 15.6527 52.4217C16.3508 50.0916 17.6167 47.9713 19.3366 46.2512L26.5566 39.0112L32.2466 44.7012L30.7566 46.1912C30.4898 46.4748 30.2877 46.8129 30.1644 47.1822C30.041 47.5514 29.9993 47.9431 30.0421 48.3301C30.0848 48.7171 30.2111 49.0902 30.4122 49.4236C30.6132 49.757 30.8843 50.0428 31.2066 50.2612C31.6892 50.7363 32.3393 51.0027 33.0166 51.0027C33.6938 51.0027 34.3439 50.7363 34.8266 50.2612L36.3166 48.7712L42.0066 54.4612ZM33.4166 48.8412C32.9466 49.3012 32.4866 48.7212 32.1766 48.3912C32.0721 48.2863 32.0135 48.1443 32.0135 47.9962C32.0135 47.8482 32.0721 47.7062 32.1766 47.6012L56.5966 23.1812L57.8366 24.4212L33.4166 48.8412ZM69.0066 24.0612C68.9791 24.1873 68.9196 24.3042 68.8337 24.4005C68.7479 24.4969 68.6386 24.5694 68.5166 24.6112L64.0066 26.1212C63.6331 26.2451 63.2323 26.2611 62.8502 26.1674C62.4681 26.0736 62.1202 25.8739 61.8466 25.5912L55.4266 19.1712C55.1458 18.8962 54.9475 18.5483 54.8539 18.1667C54.7602 17.7851 54.775 17.3849 54.8966 17.0112L56.4066 12.5212C56.4495 12.3889 56.5283 12.2712 56.6342 12.1811C56.7402 12.0911 56.8691 12.0322 57.0066 12.0112C57.1493 11.9799 57.2977 11.9856 57.4376 12.0276C57.5776 12.0696 57.7046 12.1465 57.8066 12.2512L68.8066 23.2512C68.9076 23.3571 68.9791 23.4875 69.0142 23.6296C69.0493 23.7717 69.0467 23.9205 69.0066 24.0612V24.0612Z" fill="#ECECEC"/>
<line x1="15.7256" y1="9.31191" x2="70.7256" y2="67.3119" stroke="#ECECEC" stroke-width="2"/>
</svg>
